{"accessors" : [{"bufferView" : 0, "byteOffset" : 0, "componentType" : 5123, "count" : 25341, "type" : "SCALAR", "max" : [15041], "min" : [0]}, {"bufferView" : 1, "byteOffset" : 0, "componentType" : 5126, "count" : 15042, "type" : "VEC3", "max" : [2.0579607486724854, 4.009548664093018, 1.1565474271774292], "min" : [-1.245406985282898, -1.608586072921753, -1.1424238681793213], "name" : "POSITION"}, {"bufferView" : 1, "byteOffset" : 12, "componentType" : 5126, "count" : 15042, "type" : "VEC3", "max" : [1.0000044107437134, 1.0000044107437134, 1.0000044107437134], "min" : [-1.0000044107437134, -1.0000044107437134, -1.0000044107437134], "name" : "NORMAL"}, {"bufferView" : 1, "byteOffset" : 24, "componentType" : 5126, "count" : 15042, "type" : "VEC2", "max" : [0.8752641081809998, 1], "min" : [0, 0], "name" : "TEXCOORD_0"}, {"bufferView" : 0, "byteOffset" : 50684, "componentType" : 5123, "count" : 3597, "type" : "SCALAR", "max" : [1728], "min" : [0]}, {"bufferView" : 2, "byteOffset" : 0, "componentType" : 5126, "count" : 1729, "type" : "VEC3", "max" : [1.8508440256118774, 3.6876327991485596, 1.1565474271774292], "min" : [-1.245406985282898, -1.6062885522842407, -1.1424238681793213], "name" : "POSITION"}, {"bufferView" : 2, "byteOffset" : 12, "componentType" : 5126, "count" : 1729, "type" : "VEC3", "max" : [1.0000044107437134, 1.0000044107437134, 1.0000044107437134], "min" : [-1.0000044107437134, -1.0000044107437134, -1.0000044107437134], "name" : "NORMAL"}, {"bufferView" : 2, "byteOffset" : 24, "componentType" : 5126, "count" : 1729, "type" : "VEC2", "max" : [0.864536464214325, 1], "min" : [0.3749999701976776, 0], "name" : "TEXCOORD_0"}, {"bufferView" : 0, "byteOffset" : 57880, "componentType" : 5123, "count" : 14313, "type" : "SCALAR", "max" : [8538], "min" : [0]}, {"bufferView" : 3, "byteOffset" : 0, "componentType" : 5126, "count" : 8539, "type" : "VEC3", "max" : [1.7729394435882568, 3.6876604557037354, 1.1402653455734253], "min" : [-1.1290799379348755, -1.1246641874313354, -1.1198011636734009], "name" : "POSITION"}, {"bufferView" : 3, "byteOffset" : 12, "componentType" : 5126, "count" : 8539, "type" : "VEC3", "max" : [1.0000044107437134, 0.964922308921814, 1.0000044107437134], "min" : [-1.0000044107437134, -1.0000042915344238, -1.0000044107437134], "name" : "NORMAL"}, {"bufferView" : 3, "byteOffset" : 24, "componentType" : 5126, "count" : 8539, "type" : "VEC2", "max" : [0.8750000596046448, 1], "min" : [0.125, 0], "name" : "TEXCOORD_0"}, {"bufferView" : 0, "byteOffset" : 86508, "componentType" : 5123, "count" : 5250, "type" : "SCALAR", "max" : [3069], "min" : [0]}, {"bufferView" : 4, "byteOffset" : 0, "componentType" : 5126, "count" : 3070, "type" : "VEC3", "max" : [1.9208447933197021, 3.843065023422241, 1.139506459236145], "min" : [-1.370198130607605, -1.608586072921753, -1.1587896347045898], "name" : "POSITION"}, {"bufferView" : 4, "byteOffset" : 12, "componentType" : 5126, "count" : 3070, "type" : "VEC3", "max" : [1.0000044107437134, 0.8648096919059753, 1.0000044107437134], "min" : [-1.0000044107437134, -0.9595495462417603, -1.0000044107437134], "name" : "NORMAL"}, {"bufferView" : 4, "byteOffset" : 24, "componentType" : 5126, "count" : 3070, "type" : "VEC2", "max" : [0.3750000596046448, 0.2500000596046448], "min" : [0.3749999701976776, -1.1920928955078125E-07], "name" : "TEXCOORD_0"}, {"bufferView" : 0, "byteOffset" : 97008, "componentType" : 5123, "count" : 4872, "type" : "SCALAR", "max" : [2863], "min" : [0]}, {"bufferView" : 5, "byteOffset" : 0, "componentType" : 5126, "count" : 2864, "type" : "VEC3", "max" : [1.9208447933197021, 3.843065023422241, 1.1528637409210205], "min" : [-1.370198130607605, -1.608586072921753, -1.154443621635437], "name" : "POSITION"}, {"bufferView" : 5, "byteOffset" : 12, "componentType" : 5126, "count" : 2864, "type" : "VEC3", "max" : [1.0000044107437134, 0.8648105263710022, 1.0000044107437134], "min" : [-1.0000044107437134, -0.9595480561256409, -1.0000044107437134], "name" : "NORMAL"}, {"bufferView" : 5, "byteOffset" : 24, "componentType" : 5126, "count" : 2864, "type" : "VEC2", "max" : [0.3750000596046448, 0.2500000596046448], "min" : [0.3749999701976776, -1.1920928955078125E-07], "name" : "TEXCOORD_0"}, {"bufferView" : 0, "byteOffset" : 106752, "componentType" : 5123, "count" : 4083, "type" : "SCALAR", "max" : [2310], "min" : [0]}, {"bufferView" : 6, "byteOffset" : 0, "componentType" : 5126, "count" : 2311, "type" : "VEC3", "max" : [2.0574088096618652, 3.728827714920044, 1.1069432497024536], "min" : [-1.1185832023620605, -1.51101815700531, -1.1198011636734009], "name" : "POSITION"}, {"bufferView" : 6, "byteOffset" : 12, "componentType" : 5126, "count" : 2311, "type" : "VEC3", "max" : [1.0000044107437134, 1.0000044107437134, 1.0000044107437134], "min" : [-1.0000042915344238, -1.0000044107437134, -1.0000044107437134], "name" : "NORMAL"}, {"bufferView" : 6, "byteOffset" : 24, "componentType" : 5126, "count" : 2311, "type" : "VEC2", "max" : [0.3750000596046448, 0.25], "min" : [0.3749999701976776, 0], "name" : "TEXCOORD_0"}, {"bufferView" : 0, "byteOffset" : 114920, "componentType" : 5123, "count" : 6, "type" : "SCALAR", "max" : [3], "min" : [0]}, {"bufferView" : 7, "byteOffset" : 0, "componentType" : 5126, "count" : 4, "type" : "VEC3", "max" : [1.0884150266647339, 0.7511062622070312, 0.4097570776939392], "min" : [1.0884150266647339, -1.070619821548462, 0.08546192944049835], "name" : "POSITION"}, {"bufferView" : 7, "byteOffset" : 12, "componentType" : 5126, "count" : 4, "type" : "VEC3", "max" : [1.0000044107437134, 0, -0], "min" : [1.0000044107437134, 0, -0], "name" : "NORMAL"}, {"bufferView" : 7, "byteOffset" : 24, "componentType" : 5126, "count" : 4, "type" : "VEC2", "max" : [0.3750000298023224, 0.2766047716140747], "min" : [0.375, 0.25], "name" : "TEXCOORD_0"}, {"bufferView" : 0, "byteOffset" : 114932, "componentType" : 5123, "count" : 240, "type" : "SCALAR", "max" : [95], "min" : [0]}, {"bufferView" : 8, "byteOffset" : 0, "componentType" : 5126, "count" : 96, "type" : "VEC3", "max" : [1.0623657703399658, 2.9567112922668457, 1.1064565181732178], "min" : [-1.0590914487838745, -0.0828419029712677, -1.123713493347168], "name" : "POSITION"}, {"bufferView" : 8, "byteOffset" : 12, "componentType" : 5126, "count" : 96, "type" : "VEC3", "max" : [1.0000042915344238, 0.009564151056110859, 1.0000044107437134], "min" : [-1.0000044107437134, -9.91073676459564E-08, -1.0000044107437134], "name" : "NORMAL"}, {"bufferView" : 8, "byteOffset" : 24, "componentType" : 5126, "count" : 96, "type" : "VEC2", "max" : [0, 1], "min" : [0, 1], "name" : "TEXCOORD_0"}], "asset" : {"generator" : "Aspose.3D 21.5.2", "version" : "2.0"}, "buffers" : [{"uri" : "data:application/octet-stream;base64,", "byteLength" : 1961912}], "bufferViews" : [{"buffer" : 0, "byteOffset" : 0, "byteLength" : 115412, "target" : 34963}, {"buffer" : 0, "byteOffset" : 115416, "byteLength" : 810912, "byteStride" : 32, "target" : 34962}, {"buffer" : 0, "byteOffset" : 926332, "byteLength" : 115104, "byteStride" : 32, "target" : 34962}, {"buffer" : 0, "byteOffset" : 1041440, "byteLength" : 458016, "byteStride" : 32, "target" : 34962}, {"buffer" : 0, "byteOffset" : 1499460, "byteLength" : 168000, "byteStride" : 32, "target" : 34962}, {"buffer" : 0, "byteOffset" : 1667464, "byteLength" : 155904, "byteStride" : 32, "target" : 34962}, {"buffer" : 0, "byteOffset" : 1823372, "byteLength" : 130656, "byteStride" : 32, "target" : 34962}, {"buffer" : 0, "byteOffset" : 1954032, "byteLength" : 192, "byteStride" : 32, "target" : 34962}, {"buffer" : 0, "byteOffset" : 1954228, "byteLength" : 7680, "byteStride" : 32, "target" : 34962}], "materials" : [{"pbrMetallicRoughness" : {"baseColorFactor" : [0.19017383456230164, 0.10474437475204468, 0.05095452815294266, 1], "metallicFactor" : 0, "roughnessFactor" : 0.4000000059604645}, "emissiveFactor" : [0, 0, 0], "alphaMode" : "OPAQUE", "doubleSided" : true}, {"pbrMetallicRoughness" : {"baseColorFactor" : [0.4019688069820404, 0.25812214612960815, 0.114850714802742, 1], "metallicFactor" : 0, "roughnessFactor" : 0.5}, "emissiveFactor" : [0, 0, 0], "alphaMode" : "OPAQUE", "doubleSided" : true}, {"pbrMetallicRoughness" : {"baseColorFactor" : [0.1237102523446083, 0.06915858387947083, 0.022061564028263092, 1], "metallicFactor" : 0, "roughnessFactor" : 0.5}, "emissiveFactor" : [0, 0, 0], "alphaMode" : "OPAQUE", "doubleSided" : true}, {"pbrMetallicRoughness" : {"baseColorFactor" : [0.18446941673755646, 0.10635516047477722, 0.03554818406701088, 1], "metallicFactor" : 0, "roughnessFactor" : 0.5}, "emissiveFactor" : [0, 0, 0], "alphaMode" : "OPAQUE", "doubleSided" : true}, {"pbrMetallicRoughness" : {"baseColorFactor" : [0.20791637897491455, 0.12332563102245331, 0.041401490569114685, 1], "metallicFactor" : 0, "roughnessFactor" : 0.5}, "emissiveFactor" : [0, 0, 0], "alphaMode" : "OPAQUE", "doubleSided" : true}, {"pbrMetallicRoughness" : {"baseColorFactor" : [0.1626419872045517, 0.0908607542514801, 0.04024322330951691, 1], "metallicFactor" : 0, "roughnessFactor" : 0.5}, "emissiveFactor" : [0, 0, 0], "alphaMode" : "OPAQUE", "doubleSided" : true}, {"pbrMetallicRoughness" : {"baseColorFactor" : [0, 0, 0, 1], "metallicFactor" : 0, "roughnessFactor" : 0.5}, "emissiveFactor" : [0, 0, 0], "alphaMode" : "OPAQUE", "doubleSided" : true}, {"pbrMetallicRoughness" : {"baseColorFactor" : [0.10259360074996948, 0.25562331080436707, 0.44797879457473755, 1], "metallicFactor" : 0, "roughnessFactor" : 0.5}, "emissiveFactor" : [0, 0, 0], "alphaMode" : "OPAQUE", "doubleSided" : true}], "meshes" : [{"primitives" : [{"attributes" : {"POSITION" : 1, "NORMAL" : 2, "TEXCOORD_0" : 3}, "indices" : 0, "material" : 0, "mode" : 4}, {"attributes" : {"POSITION" : 5, "NORMAL" : 6, "TEXCOORD_0" : 7}, "indices" : 4, "material" : 1, "mode" : 4}, {"attributes" : {"POSITION" : 9, "NORMAL" : 10, "TEXCOORD_0" : 11}, "indices" : 8, "material" : 2, "mode" : 4}, {"attributes" : {"POSITION" : 13, "NORMAL" : 14, "TEXCOORD_0" : 15}, "indices" : 12, "material" : 3, "mode" : 4}, {"attributes" : {"POSITION" : 17, "NORMAL" : 18, "TEXCOORD_0" : 19}, "indices" : 16, "material" : 4, "mode" : 4}, {"attributes" : {"POSITION" : 21, "NORMAL" : 22, "TEXCOORD_0" : 23}, "indices" : 20, "material" : 5, "mode" : 4}, {"attributes" : {"POSITION" : 25, "NORMAL" : 26, "TEXCOORD_0" : 27}, "indices" : 24, "material" : 6, "mode" : 4}, {"attributes" : {"POSITION" : 29, "NORMAL" : 30, "TEXCOORD_0" : 31}, "indices" : 28, "material" : 7, "mode" : 4}]}], "nodes" : [{"matrix" : [0.9347639679908752, 0, 0, 0, 0, 0.45508337020874023, 0, 0, 0, 0, 1.6372960805892944, 0, 0, 0, 0, 1], "mesh" : 0, "name" : "House"}], "scene" : 0, "scenes" : [{"nodes" : [0]}]}