{
  "accessors": [
    {
      "bufferView": 2,
      "componentType": 5126,
      "count": 42054,
      "max": [
        -0.42943799495697021,
        17.558855056762695,
        4.5658998489379883
      ],
      "min": [
        -2.5669898986816406,
        14.515416145324707,
        -1.4483460187911987
      ],
      "type": "VEC3"
    },
    {
      "bufferView": 2,
      "byteOffset": 504648,
      "componentType": 5126,
      "count": 42054,
      "max": [
        0.99999076128005981,
        0.99988275766372681,
        0.99963808059692383
      ],
      "min": [
        -0.99999433755874634,
        -0.99973028898239136,
        -0.99956589937210083
      ],
      "type": "VEC3"
    },
    {
      "bufferView": 3,
      "componentType": 5126,
      "count": 42054,
      "max": [
        0.81176471710205078,
        0.7607843279838562,
        0.59607845544815063,
        1
      ],
      "min": [
        0.086274512112140656,
        0.090196080505847931,
        0.086274512112140656,
        1
      ],
      "type": "VEC4"
    },
    {
      "bufferView": 1,
      "componentType": 5126,
      "count": 42054,
      "max": [
        1,
        1
      ],
      "min": [
        0,
        0
      ],
      "type": "VEC2"
    },
    {
      "bufferView": 0,
      "componentType": 5125,
      "count": 229629,
      "max": [
        42053
      ],
      "min": [
        0
      ],
      "type": "SCALAR"
    },
    {
      "bufferView": 2,
      "byteOffset": 1009296,
      "componentType": 5126,
      "count": 44888,
      "max": [
        0.10858699679374695,
        18.058853149414062,
        4.5543007850646973
      ],
      "min": [
        -2.5586400032043457,
        14.075812339782715,
        -1.5576859712600708
      ],
      "type": "VEC3"
    },
    {
      "bufferView": 2,
      "byteOffset": 1547952,
      "componentType": 5126,
      "count": 44888,
      "max": [
        0.99995338916778564,
        0.99996483325958252,
        0.99999243021011353
      ],
      "min": [
        -0.99992018938064575,
        -0.99988371133804321,
        -0.99996834993362427
      ],
      "type": "VEC3"
    },
    {
      "bufferView": 3,
      "byteOffset": 672864,
      "componentType": 5126,
      "count": 44888,
      "max": [
        0.76470589637756348,
        0.74117648601531982,
        0.60784316062927246,
        1
      ],
      "min": [
        0.086274512112140656,
        0.090196080505847931,
        0.086274512112140656,
        1
      ],
      "type": "VEC4"
    },
    {
      "bufferView": 1,
      "byteOffset": 336432,
      "componentType": 5126,
      "count": 44888,
      "max": [
        1,
        0.96807700395584106
      ],
      "min": [
        0,
        0
      ],
      "type": "VEC2"
    },
    {
      "bufferView": 0,
      "byteOffset": 918516,
      "componentType": 5125,
      "count": 242709,
      "max": [
        44887
      ],
      "min": [
        0
      ],
      "type": "SCALAR"
    },
    {
      "bufferView": 2,
      "byteOffset": 2086608,
      "componentType": 5126,
      "count": 37006,
      "max": [
        0.18351800739765167,
        17.784772872924805,
        4.5658998489379883
      ],
      "min": [
        -2.609915018081665,
        14.544713973999023,
        -1.5466630458831787
      ],
      "type": "VEC3"
    },
    {
      "bufferView": 2,
      "byteOffset": 2530680,
      "componentType": 5126,
      "count": 37006,
      "max": [
        0.99995803833007812,
        0.99965333938598633,
        0.99975448846817017
      ],
      "min": [
        -0.99995750188827515,
        -0.99999785423278809,
        -0.99941056966781616
      ],
      "type": "VEC3"
    },
    {
      "bufferView": 3,
      "byteOffset": 1391072,
      "componentType": 5126,
      "count": 37006,
      "max": [
        0.76862746477127075,
        0.729411780834198,
        0.54117649793624878,
        1
      ],
      "min": [
        0.086274512112140656,
        0.090196080505847931,
        0.086274512112140656,
        1
      ],
      "type": "VEC4"
    },
    {
      "bufferView": 1,
      "byteOffset": 695536,
      "componentType": 5126,
      "count": 37006,
      "max": [
        1,
        0.99486702680587769
      ],
      "min": [
        0.0022579999640583992,
        0
      ],
      "type": "VEC2"
    },
    {
      "bufferView": 0,
      "byteOffset": 1889352,
      "componentType": 5125,
      "count": 199152,
      "max": [
        37005
      ],
      "min": [
        0
      ],
      "type": "SCALAR"
    }
  ],
  "asset": {
    "extras": {
      "author": "Limerick3D (https://sketchfab.com/Limerick3D)",
      "license": "CC0-1.0 (http://creativecommons.org/publicdomain/zero/1.0/)",
      "source": "https://sketchfab.com/3d-models/dg-044-table-ornament-41f0bbfbb0e34b9e853239a6d2d16716",
      "title": "DG 044 Table Ornament"
    },
    "generator": "Sketchfab-7.80.0",
    "version": "2.0"
  },
  "bufferViews": [
    {
      "buffer": 0,
      "byteLength": 2685960,
      "byteOffset": 0,
      "name": "floatBufferViews",
      "target": 34963
    },
    {
      "buffer": 0,
      "byteLength": 991584,
      "byteOffset": 2685960,
      "byteStride": 8,
      "name": "floatBufferViews",
      "target": 34962
    },
    {
      "buffer": 0,
      "byteLength": 2974752,
      "byteOffset": 3677544,
      "byteStride": 12,
      "name": "floatBufferViews",
      "target": 34962
    },
    {
      "buffer": 0,
      "byteLength": 1983168,
      "byteOffset": 6652296,
      "byteStride": 16,
      "name": "floatBufferViews",
      "target": 34962
    }
  ],
  "buffers": [
    {
      "byteLength": 8635464,
      "uri": "scene.bin"
    }
  ],
  "materials": [
    {
      "doubleSided": true,
      "name": "DG_044_Table_Ornament",
      "pbrMetallicRoughness": {
        "baseColorFactor": [
          1,
          1,
          1,
          1
        ],
        "metallicFactor": 0,
        "roughnessFactor": 0.59999999999999998
      }
    },
    {
      "doubleSided": true,
      "name": "DG_044_Table_Ornament1",
      "pbrMetallicRoughness": {
        "baseColorFactor": [
          0.79560606985381155,
          0.79560606985381155,
          0.79560606985381155,
          1
        ],
        "metallicFactor": 0.044090918338660037,
        "roughnessFactor": 0.58348485773259939
      }
    },
    {
      "doubleSided": true,
      "name": "DG_044_Table_Ornament2",
      "pbrMetallicRoughness": {
        "baseColorFactor": [
          1,
          1,
          1,
          1
        ],
        "metallicFactor": 0,
        "roughnessFactor": 0.59999999999999998
      }
    }
  ],
  "meshes": [
    {
      "primitives": [
        {
          "attributes": {
            "COLOR_0": 2,
            "NORMAL": 1,
            "POSITION": 0,
            "TEXCOORD_0": 3
          },
          "indices": 4,
          "material": 0,
          "mode": 4
        }
      ]
    },
    {
      "primitives": [
        {
          "attributes": {
            "COLOR_0": 7,
            "NORMAL": 6,
            "POSITION": 5,
            "TEXCOORD_0": 8
          },
          "indices": 9,
          "material": 1,
          "mode": 4
        }
      ]
    },
    {
      "primitives": [
        {
          "attributes": {
            "COLOR_0": 12,
            "NORMAL": 11,
            "POSITION": 10,
            "TEXCOORD_0": 13
          },
          "indices": 14,
          "material": 2,
          "mode": 4
        }
      ]
    }
  ],
  "nodes": [
    {
      "children": [
        1
      ],
      "name": "RootNode (gltf orientation matrix)",
      "rotation": [
        -0.70710678118654746,
        -0,
        -0,
        0.70710678118654757
      ]
    },
    {
      "children": [
        2
      ],
      "matrix": [
        0.097764506936073303,
        0.9950224757194519,
        -0.019296027719974518,
        0,
        -0.77600347995758057,
        0.064076952636241913,
        -0.62746530771255493,
        0,
        -0.62310570478439331,
        0.076317623257637024,
        0.77840536832809448,
        0,
        12.31092643737793,
        16.130146026611328,
        10.391579627990723,
        1
      ],
      "name": "RootNode (model correction matrix)"
    },
    {
      "children": [
        3,
        4,
        5
      ],
      "name": "DG 044 Table Ornament.obj.cleaner.materialmerger.gles"
    },
    {
      "mesh": 0,
      "name": ""
    },
    {
      "mesh": 1,
      "name": ""
    },
    {
      "mesh": 2,
      "name": ""
    }
  ],
  "scene": 0,
  "scenes": [
    {
      "name": "OSG_Scene",
      "nodes": [
        0
      ]
    }
  ]
}

